<svg xmlns="http://www.w3.org/2000/svg" id="Lager_1" viewBox="0 0 523.2 121.43"><defs><style>.cls-1{fill:#fff;}</style></defs><path class="cls-1" d="M60.3,9.12s-2.19,8.97,8.32,10.83c8.31,1.46,11.35-4.05,11.35-4.05l-19.67-6.77h0Zm-14.28,69.47c24.92,26.08,67.48,3.51,75.81-23.01l.23-.51c.92,9.63-.45,19.41-4.05,28.48-3.36,8.47-8.63,16.37-15.91,22.82-24.15,21.4-52.86,17.55-70.37,3.54C11.64,93.85,5.65,67.99,10.37,49.37c-5.87,10.07-8.09,21.83-6.42,33.22C-4.2,61.05,.33,36.02,16.94,18.67c1.05-1.1,2.15-2.17,3.3-3.2,4.35-3.91,9.1-7.09,14.11-9.53C44.49,.98,56.5,0,64.65,0c17,0,46.92,14.53,46.92,32.93l.05,.98,.02,.77v1.25c-.02,1.54-.13,2.81-.36,3.84,.08-.36,.15-.74,.21-1.13l-.1,.73-.14,.77c-.08,.12-.18,.36-.54,.36-.27,0-.39-.15-.5-.36-.98-1.97-2.07-3.64-3.66-5.2-3.14-3.07-7.38-4.8-11.77-4.8-34.07,0-43.79,40.18-27.74,51.16-5.83,1.4-29.05-11.1-27.71-37.44-7.59,11.61-1.34,26.34,6.69,34.75h0Z"></path><path class="cls-1" d="M175.83,72.79l-.02,1.47c-.02,.59-.07,1.18-.15,1.77-.23,1.42-.84,2.51-1.83,3.25-.99,.74-2.31,1.12-3.96,1.12h-15.1c-1.63-.02-2.91-.49-3.82-1.43-.92-.93-1.38-2.22-1.4-3.85V41.84l.4-.4h24.47c.14,.68,.23,1.32,.28,1.91,.05,.6,.07,1.15,.06,1.66,0,.53-.07,1.16-.21,1.89s-.33,1.44-.59,2.14h-15.5l.03,2.07,.03,2.02v3.98l2.19-.05h10.36c.17,.56,.3,1.19,.38,1.88,.08,.69,.13,1.29,.13,1.8s-.04,1.13-.13,1.8c-.09,.67-.21,1.3-.38,1.89h-12.55v4.32l-.03,2.02-.03,2.07,1.99-.02,2.21-.04h13.18Z"></path><path class="cls-1" d="M185.53,80.28c-.57,.14-1.18,.23-1.82,.28-.64,.05-1.3,.07-1.99,.06-.74,0-1.52-.05-2.34-.16-.82-.11-1.52-.26-2.09-.46l-.28-.45,12.49-38.1c.77-.11,1.64-.2,2.62-.26,.98-.06,1.86-.09,2.66-.09,.77,0,1.65,.03,2.63,.09,.98,.06,1.84,.16,2.59,.31l12.26,38.16c-.66,.34-1.47,.61-2.44,.8-.97,.19-1.9,.28-2.78,.28-1.42,.04-2.55-.29-3.39-1-.83-.71-1.52-2.02-2.07-3.94l-7.15-26.07c-.65,1.65-8.91,30.55-8.91,30.55h0Z"></path><path class="cls-1" d="M229.6,58.19l8.92-.06c2.24,0,3.81,.53,4.71,1.58,.9,1.05,1.34,2.41,1.31,4.09v14.94c-1.7,.57-3.84,1.09-6.41,1.57-2.58,.48-5.46,.73-8.63,.76-5.78-.07-10.09-1.86-12.92-5.39-2.83-3.53-4.24-8.39-4.23-14.59,.05-4.6,.93-8.42,2.64-11.45,1.71-3.03,3.91-5.3,6.6-6.8,2.7-1.5,5.56-2.25,8.59-2.25,2.76,.02,5.35,.39,7.75,1.13,2.4,.73,4.57,1.72,6.51,2.96-.13,1.31-.59,2.56-1.4,3.75-.8,1.19-1.68,2.1-2.63,2.73-1.41-.92-2.96-1.66-4.62-2.22-1.66-.56-3.3-.84-4.92-.85-2.9-.02-5.16,1.02-6.78,3.13-1.63,2.11-2.45,5.42-2.48,9.94,.01,4.41,.84,7.65,2.47,9.71,1.63,2.07,3.97,3.09,7.02,3.07,.91,0,1.78-.04,2.6-.12,.82-.08,1.6-.19,2.34-.33v-5.7c.03-.66,.06-1.34,.11-2.02h-2.84c-1.47,.02-2.56-.26-3.27-.84-.71-.58-1.05-1.56-1.05-2.96,0-.61,.07-1.25,.18-1.91,.12-.67,.26-1.28,.44-1.83h0Z"></path><path class="cls-1" d="M264.7,72.56h9.82l-.02,1.68c-.02,.58-.07,1.15-.15,1.72-.27,1.43-.91,2.52-1.94,3.28-1.03,.76-2.37,1.14-4.03,1.15h-12.83c-1.64-.02-2.92-.49-3.85-1.43-.93-.93-1.41-2.22-1.43-3.85V41.44l.4-.4h3.35c1.74-.01,3.06,.44,3.97,1.36,.91,.92,1.36,2.4,1.37,4.43v25.95c.94-.08,1.86-.14,2.75-.18,.9-.03,1.76-.05,2.58-.05h0Z"></path><path class="cls-1" d="M304.79,72.79l-.02,1.47c-.02,.59-.07,1.18-.15,1.77-.23,1.42-.85,2.51-1.83,3.25-.99,.74-2.31,1.12-3.96,1.12h-15.1c-1.63-.02-2.91-.49-3.82-1.43-.92-.93-1.38-2.22-1.4-3.85V41.84l.4-.4h24.47c.14,.68,.23,1.32,.28,1.91,.05,.6,.07,1.15,.06,1.66,0,.53-.07,1.16-.21,1.89-.13,.73-.33,1.44-.59,2.14h-15.5l.03,2.07,.03,2.02v3.98l2.19-.05h10.36c.17,.56,.3,1.19,.38,1.88,.09,.69,.13,1.29,.13,1.8s-.04,1.13-.13,1.8c-.09,.67-.21,1.3-.38,1.89h-12.55v4.32l-.03,2.02-.03,2.07,2-.02,2.21-.04h13.18Z"></path><path class="cls-1" d="M485.07,80.26c.44,.08,.94,.14,1.49,.18,.55,.03,1.06,.05,1.53,.05,.47,0,.97-.02,1.51-.05,.54-.03,1.04-.09,1.51-.18V41.4c-.47-.08-.97-.14-1.51-.18-.54-.03-1.04-.05-1.51-.05-.47,0-.98,.02-1.53,.05-.55,.04-1.04,.09-1.49,.18v38.86h0Z"></path><path class="cls-1" d="M506.71,80.26c.49,.08,1.01,.14,1.56,.18,.54,.03,1.05,.05,1.51,.05,.46,0,.96-.02,1.49-.05,.53-.03,1.04-.09,1.53-.18V46.46c.44,0,1,.01,1.67,.03,.67,.02,1.22,.03,1.63,.03h3.7c1.16,.01,2.02-.2,2.58-.62,.56-.42,.84-1.13,.83-2.11,0-.4-.04-.82-.11-1.24s-.15-.8-.24-1.15h-26.17c-.08,.46-.14,.91-.18,1.34-.03,.44-.05,.84-.05,1.21,0,.37,.02,.78,.05,1.22,.03,.44,.09,.88,.18,1.34h6.77c.44,0,.99-.01,1.64-.03s1.19-.03,1.6-.03h.06c0,.78-.01,1.49-.03,2.13-.02,.64-.03,1.34-.03,2.08v29.59h0Z"></path><path class="cls-1" d="M329.13,72.59c-.17,.01-.3-.02-.4-.11-.1-.08-.17-.27-.23-.57-.28-1.66-.6-3.37-.95-5.13-.35-1.76-.75-3.49-1.2-5.18l-4.36-16.15c-.38-1.52-.95-2.65-1.71-3.38-.76-.73-1.82-1.1-3.16-1.09-.99,.01-1.95,.14-2.87,.4-.92,.25-1.77,.55-2.57,.91l9.4,34.15c.51,1.68,1.29,2.79,2.32,3.33,1.03,.54,2.3,.79,3.8,.74,1.18,0,2.41-.03,3.69-.08,1.28-.06,2.46-.14,3.56-.26l10.59-37.95-.34-.45c-.65-.23-1.36-.38-2.14-.48-.78-.1-1.46-.14-2.05-.14-.6,0-1.24,0-1.92,.04-.68,.04-1.36,.13-2.05,.3l-7.42,31.1h0Z"></path><path class="cls-1" d="M346.73,80.17c.77,.14,1.57,.23,2.41,.28,.84,.05,1.55,.07,2.12,.06,.64,0,1.37-.02,2.19-.06,.82-.05,1.62-.14,2.4-.28V41.49c-.78-.14-1.58-.23-2.4-.28-.82-.05-1.55-.07-2.19-.06-.57,0-1.27,.02-2.12,.06-.84,.05-1.65,.14-2.41,.28v38.68h0Z"></path><path class="cls-1" d="M358.09,76.83c2.14,1.34,4.48,2.37,7.01,3.09,2.53,.72,4.97,1.09,7.31,1.1,4.96-.08,8.68-1.24,11.17-3.49,2.48-2.25,3.73-5.12,3.73-8.63-.02-2.48-.76-4.67-2.24-6.57-1.48-1.9-3.58-3.45-6.31-4.65l-6.8-2.89c-1.23-.5-2.1-1.04-2.61-1.61-.51-.57-.75-1.23-.74-1.96-.02-.78,.33-1.52,1.03-2.22,.71-.7,1.87-1.07,3.5-1.12,1.56,.03,3.27,.32,5.14,.88,1.87,.55,3.55,1.19,5.05,1.9,.88-.81,1.59-1.82,2.12-3.02,.53-1.2,.84-2.46,.93-3.78-1.51-.78-3.42-1.5-5.74-2.16-2.32-.67-4.84-1.02-7.57-1.06-2.58,.02-4.9,.51-6.97,1.49-2.07,.98-3.71,2.36-4.93,4.12-1.22,1.77-1.84,3.84-1.87,6.21,.05,2.69,.82,4.85,2.31,6.5,1.49,1.64,3.42,2.97,5.79,3.99l6.69,2.83c1.51,.7,2.5,1.42,2.96,2.16,.46,.74,.66,1.42,.62,2.03,.01,.97-.34,1.83-1.06,2.57-.72,.74-1.9,1.13-3.53,1.17-2.07-.03-4.1-.41-6.09-1.12-1.99-.71-3.8-1.57-5.41-2.56-.9,.79-1.68,1.8-2.33,3.02-.65,1.22-1.05,2.48-1.18,3.78h0Z"></path><path class="cls-1" d="M390.47,80.17c.76,.14,1.57,.23,2.41,.28,.84,.05,1.55,.07,2.12,.06,.64,0,1.37-.02,2.19-.06,.82-.05,1.62-.14,2.4-.28V41.49c-.78-.14-1.58-.23-2.4-.28-.82-.05-1.55-.07-2.19-.06-.57,0-1.27,.02-2.12,.06-.84,.05-1.65,.14-2.41,.28v38.68h0Z"></path><path class="cls-1" d="M411.88,60.8c-.03-2.04,.12-4.06,.46-6.07,.34-2.01,1.04-3.69,2.1-5.03,1.06-1.35,2.66-2.05,4.81-2.1,2.16,.05,3.78,.75,4.85,2.1,1.07,1.35,1.78,3.02,2.11,5.03,.34,2.01,.49,4.03,.46,6.07,.03,2.04-.12,4.06-.46,6.08-.34,2.02-1.04,3.71-2.11,5.06-1.07,1.36-2.69,2.06-4.85,2.11-2.14-.05-3.75-.76-4.81-2.11-1.06-1.36-1.76-3.04-2.1-5.06-.34-2.02-.49-4.04-.46-6.08h0Zm-9.45,0c-.05,3.05,.37,6.07,1.24,9.07,.88,3,2.48,5.53,4.81,7.58,1.25,1.07,2.73,1.92,4.45,2.57,1.72,.65,3.82,.98,6.32,1,2.55-.02,4.67-.35,6.37-1,1.7-.65,3.18-1.5,4.45-2.57,2.31-2.06,3.9-4.58,4.79-7.58,.89-3,1.31-6.02,1.27-9.07,.04-3.05-.38-6.06-1.27-9.04-.89-2.98-2.48-5.5-4.79-7.55-1.27-1.06-2.75-1.92-4.45-2.57-1.7-.65-3.82-.98-6.37-1-2.5,.02-4.6,.35-6.32,1-1.72,.65-3.2,1.5-4.45,2.57-2.33,2.05-3.94,4.57-4.81,7.55-.87,2.98-1.29,6-1.24,9.04h0Z"></path><path class="cls-1" d="M469.61,41.04h-2.94c-1.72-.02-2.99,.39-3.81,1.24-.82,.85-1.23,2.27-1.22,4.26v6.91c0,1.34,.02,2.97,.07,4.9,.05,1.93,.13,3.93,.23,6.01,.1,2.08,.23,4.01,.38,5.8l-.23,.11c-.41-1.07-.91-2.35-1.52-3.84-.61-1.49-1.27-3.08-1.99-4.77l-8.79-20.22c-1.01-.14-1.99-.23-2.92-.27-.94-.05-1.7-.07-2.29-.07-.63,0-1.49,.04-2.58,.13-1.09,.09-2.02,.21-2.8,.38v38.52c.73,.14,1.49,.23,2.28,.28,.79,.05,1.46,.07,2.02,.06,.58,0,1.22-.02,1.94-.06,.72-.05,1.45-.14,2.19-.28v-11.27c0-1.6-.03-3.4-.09-5.41-.06-2.01-.14-4.02-.24-6.04-.1-2.02-.22-3.85-.35-5.49l.17-.06c.4,1.1,.87,2.33,1.42,3.72,.55,1.38,1.15,2.81,1.81,4.27l8.9,20.28c1.02,.14,2,.23,2.95,.28,.95,.05,1.72,.07,2.31,.06,.63,0,1.51-.04,2.62-.13,1.11-.09,2.07-.21,2.87-.38V41.43l-.4-.4h0Z"></path></svg>